<?xml version="1.0" encoding="utf-8"?>
<!-- Generator: Adobe Illustrator 25.1.0, SVG Export Plug-In . SVG Version: 6.00 Build 0)  -->
<svg version="1.1" id="Layer_1" xmlns="http://www.w3.org/2000/svg" xmlns:xlink="http://www.w3.org/1999/xlink" x="0px" y="0px"
	 viewBox="0 0 595.28 841.89" style="enable-background:new 0 0 595.28 841.89;" xml:space="preserve">
<path d="M367.11,392.8c-6.89-2.97-13.78-5.93-20.66-8.9c-1.56-0.67-3.14-1.31-4.65-2.1c-1.8-0.95-3.18-0.35-4.54,0.87
	c-5.17,4.63-10.33,9.27-15.55,13.83c-6.22,5.45-12.52,10.81-18.76,16.24c-3.95,3.44-7.87,6.91-11.72,10.46
	c-1.35,1.25-2.22,1.42-3.73,0.07c-6.32-5.66-12.8-11.14-19.19-16.73c-3.99-3.49-7.91-7.08-11.9-10.57
	c-5.11-4.47-10.36-8.78-15.38-13.35c-4.45-4.04-8.77-8.2-12.11-13.31c-3.4-5.19-6.44-10.5-7.68-16.64
	c-0.99-4.91-2.51-9.84-2.57-14.78c-0.06-5.23,0.29-10.63,2.41-15.66c0.77-1.82,1.01-3.85,1.76-5.69
	c3.99-9.84,10.26-17.98,18.51-24.64c0.4-0.32,0.68-1.02,0.68-1.54c-0.01-10.18-0.11-20.36-0.06-30.54c0.01-0.98,0.68-2.19,1.42-2.89
	c5.48-5.23,12.04-8.62,19.2-10.94c9.25-3,18.75-4.12,28.42-3.49c10.09,0.65,19.86,2.75,28.7,7.89c3.22,1.87,6.17,4.21,9.23,6.35
	c1.29,0.9,1.62,2.16,1.61,3.7c-0.06,7.33,0.25,14.68-0.14,22c-0.2,3.71,1.35,5.69,4.08,7.59c6.8,4.74,12.32,10.66,16.65,17.8
	c3.19,5.27,5.74,10.69,6.9,16.75c0.25,1.31,0.57,2.66,1.2,3.82c0.34,0.62,1.36,1.15,2.13,1.22c8.14,0.8,16.3,1.5,24.45,2.23
	c0.68,0.06,1.35,0.23,2.59,0.45c-2.14,1.88-3.87,3.47-5.67,4.97c-4.13,3.43-8.3,6.83-12.46,10.23c-4.05,3.31-8.1,6.62-12.16,9.9
	c-1.48,1.19-2.42,2.28-1.58,4.5c2.87,7.6,5.48,15.31,8.25,22.95c0.92,2.54,2,5.01,3.01,7.52
	C367.56,392.52,367.33,392.66,367.11,392.8z M289.51,364.75c-8.97,0.07-16.8-2.73-23.44-8.89c-4.33-4.01-6.88-8.95-7.92-14.6
	c-1.23-6.72,0.65-12.78,4.5-18.41c2.39-3.5,5.42-6.2,8.95-8.3c6.42-3.81,13.47-5.32,20.9-4.52c10.04,1.08,18.53,4.99,24.12,13.89
	c0.9,1.44,2.06,2.23,3.94,2.34c5.47,0.33,10.92,0.89,16.37,1.42c2.61,0.26,3.07-0.14,2.2-2.57c-2.24-6.24-5.43-11.95-10.12-16.67
	c-2.48-2.5-5.15-4.88-8.04-6.86c-5.96-4.08-12.6-6.77-19.68-8.26c-7.76-1.63-15.56-1.77-23.31-0.17c-6.84,1.41-13.3,3.88-19.22,7.7
	c-6.47,4.18-11.7,9.49-15.58,16.15c-3.14,5.4-4.85,11.24-5.58,17.4c-0.56,4.73,0.06,9.39,1.61,13.81c1.42,4.04,3.01,8.16,5.32,11.73
	c4.11,6.34,9.66,11.34,16.29,15.13c5.73,3.29,11.86,5.43,18.3,6.63c9.25,1.73,18.41,1.1,27.4-1.73c0.62-0.2,1.55-0.63,1.61-1.07
	c0.08-0.53-0.51-1.26-0.97-1.75c-2.89-3.09-5.92-6.04-8.71-9.22c-1.91-2.18-3.8-3.96-7-3.2
	C290.82,364.88,290.15,364.75,289.51,364.75z M347.95,372.5c0-0.71,0.1-1.08-0.02-1.37c-1.85-4.43-3.72-8.85-5.63-13.26
	c-0.14-0.33-0.58-0.62-0.94-0.78c-5.97-2.61-11.95-5.21-17.93-7.79c-6.92-2.98-13.85-5.95-20.78-8.93c0.46-0.36,0.87-0.45,1.23-0.34
	c4.83,1.42,9.66,2.85,14.47,4.31c8.82,2.69,17.63,5.42,26.46,8.07c0.64,0.19,1.64,0.07,2.16-0.32c4.36-3.24,8.67-6.56,12.95-9.91
	c0.65-0.51,1.1-1.27,1.91-2.24c-26.87-2.7-53.2-5.34-79.52-7.98c-0.09,0.24-0.18,0.49-0.27,0.73c1.73,1.79,3.47,3.56,5.18,5.37
	c5.67,5.99,11.35,11.98,16.98,18.01c5.16,5.52,10.29,11.07,15.4,16.64c0.98,1.06,1.82,1.34,3.05,0.31c3.59-2.98,7.23-5.9,10.88-8.81
	c2.06-1.64,4.17-3.2,6.26-4.8c0.18,0.13,0.36,0.27,0.54,0.4c-0.53,1.65-1.05,3.31-1.6,4.96c-0.52,1.57-0.54,2.87,1.27,3.71
	C342.58,369.69,345.07,371.03,347.95,372.5z"/>
<path d="M233.8,267.66c-4.13-0.9-7.71-1.71-11.32-2.44c-0.68-0.14-2.05,0-2.06,0.12c-0.1,1.01-0.37,2.46,0.17,3
	c2.22,2.2,2.32,4.4,0.73,6.9c-0.17,0.27-0.28,0.75-0.16,1c2.26,4.61,1.64,9.68,2.34,14.54c0.09,0.62-0.5,1.7-1.07,1.99
	c-3.37,1.72-6.86,1.68-10.23,0c-0.61-0.3-1.2-1.44-1.14-2.14c0.35-4.11,0.83-8.21,1.41-12.29c0.12-0.87,0.87-1.65,1.37-2.54
	c-2.29-2.94-2.22-4.03,0.19-7.21c0.49-0.65,0.53-1.74,0.53-2.62c0.03-10.89,0.02-21.79,0.03-32.68c0-3.73,0.5-4.14,4.3-4.52
	c6.65-0.67,13.35-1.15,19.92-2.31c4-0.7,7.83-2.45,11.69-3.86c8.53-3.09,17.03-6.23,25.53-9.4c3.12-1.16,6.16-2.51,9.27-3.71
	c0.53-0.21,1.27-0.25,1.79-0.05c6.36,2.4,12.68,4.9,19.05,7.29c6.44,2.42,12.93,4.71,19.38,7.11c8.7,3.24,17.37,6.54,26.07,9.78
	c7.64,2.85,15.29,5.66,22.94,8.49c8.78,3.25,17.55,6.5,26.32,9.77c0.52,0.2,0.97,0.59,1.45,0.9c-0.04,0.18-0.07,0.37-0.11,0.55
	c-20.99,4.76-41.98,9.52-63.54,14.41c0-1.59-0.21-2.93,0.04-4.17c1.31-6.53-2.71-10.03-7.26-13.37c-7.2-5.28-15.26-8.71-23.82-10.9
	c-9.02-2.31-18.24-2.85-27.53-2.32c-8.74,0.49-17.18,2.35-25.29,5.55c-5.55,2.19-10.79,5.03-15.35,8.95
	c-1.28,1.1-2.41,2.39-3.71,3.46c-1.73,1.43-2.05,3.23-1.94,5.33C233.89,262.56,233.8,264.89,233.8,267.66z"/>
<path d="M208.52,261.97c-12.86-2.91-25.49-5.77-38.87-8.8c1.12-0.68,1.7-1.17,2.37-1.43c10.28-3.87,20.56-7.72,30.86-11.56
	c1.78-0.66,3.59-1.22,5.65-1.91C208.52,246.25,208.52,253.98,208.52,261.97z"/>
<path d="M219.13,461.95c-2.53,0-4.72,0-6.98,0c-0.05-0.36-0.13-0.63-0.13-0.89c-0.01-8.39-0.01-16.78-0.01-25.33
	c2.33,0,4.56,0,7.07,0c0,3.35,0,6.73,0,10.24c3.64,0,7.02,0,10.6,0c0-3.46,0-6.78,0-10.25c2.43,0,4.66,0,7.01,0
	c0,8.68,0,17.33,0,26.16c-2.18,0-4.41,0-6.99,0c0-2.89-0.11-5.85,0.04-8.8c0.09-1.91-0.42-2.7-2.46-2.51
	c-2.05,0.18-4.13,0.14-6.18,0.01c-1.66-0.11-2.06,0.55-2.01,2.09C219.21,455.7,219.13,458.75,219.13,461.95z"/>
<path d="M370.61,442.35c0-2.9,0-5.58,0-8.43c1.66,0.25,3.12,0.69,4.57,0.63c2.42-0.1,2.72,1.11,2.66,3.13
	c-0.13,4.34-0.06,8.68-0.03,13.02c0.02,3.5-0.45,7.1,2.18,10.05c-5,1.95-5,1.95-7.61-1.81c-1.7,3.19-4.42,3.86-7.71,3.39
	c-6.1-0.87-7.65-9.42-5.95-13.22C361.07,443.84,365.04,442.19,370.61,442.35z M370.81,447.31c-2.66-0.7-4.02-0.46-4.26,1.16
	c-0.39,2.68-0.37,5.45-0.19,8.16c0.09,1.39,1.35,1.6,2.39,0.76c0.61-0.49,1.24-1.28,1.34-2
	C370.45,452.74,370.59,450.06,370.81,447.31z"/>
<path d="M291.96,459.73c0.87-1.42,1.66-2.69,2.51-4.06c1.43,0.57,2.76,1.26,4.18,1.61c1.35,0.34,2.84,0.62,4.16,0.35
	c0.85-0.18,2.06-1.35,2.09-2.13c0.05-1.04-0.61-2.54-1.45-3.11c-1.8-1.21-3.91-1.97-5.92-2.87c-3.05-1.36-4.73-4.02-4.54-7.02
	c0.21-3.22,2.39-5.68,5.71-6.67c4.76-1.42,9.22-0.47,13.79,1.68c-0.41,0.88-0.78,1.55-1.05,2.25c-0.61,1.56-1.4,2.03-3.08,1.13
	c-1.26-0.68-2.83-1.05-4.27-1.06c-0.92-0.01-2.62,0.89-2.61,1.34c0.03,1.11,0.59,2.49,1.42,3.22c1.02,0.9,2.51,1.26,3.81,1.85
	c0.71,0.32,1.43,0.62,2.14,0.94c3.33,1.51,4.4,4.23,4.04,7.67c-0.38,3.61-2.58,5.76-5.85,6.85
	C301.82,463.44,296.98,462,291.96,459.73z"/>
<path d="M345.72,442.42c2.44,0,4.55,0,6.81,0c0.95,6.05-1.2,12.45,2.1,18.18c-3.21,2.29-4.79,2.04-7.38-1.21
	c-1.88,2.24-4.44,2.94-7.2,3.06c-3.35,0.15-6.54-1.92-6.58-5.93c-0.05-4.61-0.01-9.23-0.01-14.02c2.31,0,4.54,0,7.13,0
	c0,2.42,0,4.88,0,7.33c0,1.99-0.07,3.99,0.07,5.97c0.05,0.65,0.6,1.75,1.01,1.79c0.77,0.08,1.99-0.23,2.33-0.79
	c0.79-1.33,1.54-2.87,1.66-4.38C345.89,449.19,345.72,445.92,345.72,442.42z"/>
<path d="M278.34,455.45c0.81,2.42,2.67,2.54,4.53,2.37c1.74-0.16,3.46-0.57,5.35-0.89c0.34,1.23,0.65,2.38,1.03,3.76
	c-4.74,1.82-9.47,2.77-14.2,0.43c-1.36-0.67-2.61-2.06-3.33-3.42c-2.03-3.81-0.81-9.77,2.36-12.99c2.72-2.77,8.84-3.67,12.61-1.81
	c1.96,0.97,2.58,2.84,2.6,4.81c0.03,2.17-0.83,4.05-2.88,5.1c-1.25,0.64-2.56,1.21-3.89,1.65
	C281.25,454.88,279.91,455.09,278.34,455.45z M277.74,451.3c2.32,0.38,3.72-0.39,4.25-2.23c0.2-0.7-0.37-1.62-0.59-2.44
	c-0.9,0.33-2.18,0.42-2.62,1.06C278.13,448.64,278.08,450,277.74,451.3z"/>
<path d="M324.39,437.73c0,1.65,0,3.17,0,4.88c1.74,0.08,3.27,0.15,5.01,0.23c-0.23,1.48-0.45,2.84-0.68,4.28
	c-1.42,0.07-2.68,0.13-4.23,0.2c0,3-0.07,5.95,0.08,8.89c0.02,0.43,1.04,1.03,1.67,1.16c0.95,0.2,1.96,0.05,3.15,0.05
	c0.28,1.14,0.57,2.35,0.88,3.62c-3.36,1.16-6.64,1.35-9.95,0.44c-2.06-0.57-3.42-2.92-3.46-5.8c-0.03-2.69-0.01-5.39-0.01-8.17
	c-0.52-0.11-0.93-0.31-1.31-0.27c-1.89,0.24-2.21-0.72-2.2-2.38c0.01-1.51,0.36-2.35,2-2.12c1.82,0.25,2.72-0.34,2.86-2.34
	c0.05-0.67,1.04-1.57,1.8-1.84C321.31,438.08,322.76,438.01,324.39,437.73z"/>
<path d="M253.75,444.03c5.16-2.22,5.49-2.16,7.41,1.47c2.42-2.65,5.26-3.96,9.1-2.58c-0.61,1.79-1.19,3.49-1.72,5.06
	c-4.81,0.39-5.42,1.05-5.43,5.64c-0.01,2.69,0,5.39,0,8.26c-2.36,0-4.58,0-6.9,0C255.28,455.93,257.66,449.54,253.75,444.03z"/>
<path d="M242.44,442.81c2.46,0,4.65,0,7.18,0c0,2.79,0,5.53,0,8.27c0,1.21,0.09,2.43-0.02,3.62c-0.17,1.8,0.1,3.15,2.42,2.97
	c0.16,1.14,0.3,2.18,0.45,3.3c-2.21,0.95-4.4,1.35-6.81,0.7c-2.02-0.55-3.14-1.78-3.18-3.74
	C242.37,452.98,242.44,448.01,242.44,442.81z"/>
<path d="M249.58,436.48c0.01,1.97-1.76,3.6-3.93,3.62c-2.07,0.02-3.58-1.38-3.64-3.38c-0.07-2.22,1.47-3.72,3.77-3.69
	C247.98,433.07,249.57,434.52,249.58,436.48z"/>
</svg>
