<svg id="Layer_1" data-name="Layer 1" xmlns="http://www.w3.org/2000/svg" viewBox="0 0 232.65 253.2"><path d="M367.11,392.8l-20.66-8.9c-1.56-.67-3.14-1.31-4.65-2.1-1.8-.95-3.18-.35-4.54.87-5.17,4.63-10.33,9.27-15.55,13.83-6.22,5.45-12.52,10.81-18.76,16.24-3.95,3.44-7.87,6.91-11.72,10.46-1.35,1.25-2.22,1.42-3.73.07-6.32-5.66-12.8-11.14-19.19-16.73-4-3.49-7.91-7.08-11.9-10.57-5.11-4.47-10.36-8.78-15.38-13.35-4.45-4-8.77-8.2-12.11-13.31s-6.44-10.5-7.68-16.64c-1-4.91-2.51-9.84-2.57-14.78-.06-5.23.29-10.63,2.41-15.66.77-1.82,1-3.85,1.76-5.69a60.55,60.55,0,0,1,18.51-24.64,2.2,2.2,0,0,0,.68-1.54c0-10.18-.11-20.36-.06-30.54a4.58,4.58,0,0,1,1.42-2.89A49.07,49.07,0,0,1,262.59,246,75.48,75.48,0,0,1,291,242.5c10.09.65,19.86,2.75,28.7,7.89,3.22,1.87,6.17,4.21,9.23,6.35a4,4,0,0,1,1.61,3.7c-.06,7.33.25,14.68-.14,22-.2,3.71,1.35,5.69,4.08,7.59a58.15,58.15,0,0,1,16.65,17.8,50.64,50.64,0,0,1,6.9,16.75,13.19,13.19,0,0,0,1.2,3.82,3,3,0,0,0,2.13,1.22c8.14.8,16.3,1.5,24.45,2.23.68.06,1.35.23,2.59.45-2.14,1.88-3.87,3.47-5.67,5-4.13,3.43-8.3,6.83-12.46,10.23s-8.1,6.62-12.16,9.9c-1.48,1.19-2.42,2.28-1.58,4.5,2.87,7.6,5.48,15.31,8.25,23,.92,2.54,2,5,3,7.52Zm-77.6-28.05a32.74,32.74,0,0,1-23.44-8.89,25.72,25.72,0,0,1-7.92-14.6c-1.23-6.72.65-12.78,4.5-18.41a27.9,27.9,0,0,1,9-8.3A33.18,33.18,0,0,1,292.5,310c10,1.08,18.53,5,24.12,13.89a4.56,4.56,0,0,0,3.94,2.34c5.47.33,10.92.89,16.37,1.42,2.61.26,3.07-.14,2.2-2.57A44.51,44.51,0,0,0,329,308.44a56.39,56.39,0,0,0-8-6.86,54.34,54.34,0,0,0-19.68-8.26,56.69,56.69,0,0,0-23.31-.17,55.89,55.89,0,0,0-19.22,7.7A47.48,47.48,0,0,0,243.18,317a44.52,44.52,0,0,0-5.58,17.4,30.63,30.63,0,0,0,1.61,13.81,55.23,55.23,0,0,0,5.32,11.73,46.65,46.65,0,0,0,16.29,15.13,57.64,57.64,0,0,0,18.3,6.63,55.87,55.87,0,0,0,27.4-1.73c.62-.2,1.55-.63,1.61-1.07s-.51-1.26-1-1.75c-2.89-3.09-5.92-6-8.71-9.22-1.91-2.18-3.8-4-7-3.2A8.39,8.39,0,0,1,289.51,364.75ZM348,372.5a4.73,4.73,0,0,0,0-1.37q-2.78-6.64-5.63-13.26a1.88,1.88,0,0,0-.94-.78q-9-3.91-17.93-7.79l-20.78-8.93a1.33,1.33,0,0,1,1.23-.34q7.25,2.13,14.47,4.31c8.82,2.69,17.63,5.42,26.46,8.07a2.8,2.8,0,0,0,2.16-.32c4.36-3.24,8.67-6.56,12.95-9.91a16.16,16.16,0,0,0,1.91-2.24l-79.52-8-.27.73c1.73,1.79,3.47,3.56,5.18,5.37,5.67,6,11.35,12,17,18q7.74,8.28,15.4,16.64c1,1.06,1.82,1.34,3,.31,3.59-3,7.23-5.9,10.88-8.81,2.06-1.64,4.17-3.2,6.26-4.8l.54.4c-.53,1.65-1.05,3.31-1.6,5s-.54,2.87,1.27,3.71C342.58,369.69,345.07,371,348,372.5Z" transform="translate(-169.65 -209.31)"/><path d="M233.8,267.66c-4.13-.9-7.71-1.71-11.32-2.44a4.55,4.55,0,0,0-2.06.12c-.1,1-.37,2.46.17,3,2.22,2.2,2.32,4.4.73,6.9a1.26,1.26,0,0,0-.16,1c2.26,4.61,1.64,9.68,2.34,14.54a2.45,2.45,0,0,1-1.07,2,10.9,10.9,0,0,1-10.23,0,2.66,2.66,0,0,1-1.14-2.14c.35-4.11.83-8.21,1.41-12.29a8.58,8.58,0,0,1,1.37-2.54c-2.29-2.94-2.22-4,.19-7.21a4.62,4.62,0,0,0,.53-2.62c0-10.89,0-21.79,0-32.68,0-3.73.5-4.14,4.3-4.52,6.65-.67,13.35-1.15,19.92-2.31,4-.7,7.83-2.45,11.69-3.86Q263.29,218,276,213.2c3.12-1.16,6.16-2.51,9.27-3.71a2.69,2.69,0,0,1,1.79-.05c6.36,2.4,12.68,4.9,19.05,7.29s12.93,4.71,19.38,7.11c8.7,3.24,17.37,6.54,26.07,9.78,7.64,2.85,15.29,5.66,22.94,8.49q13.17,4.88,26.32,9.77a8.5,8.5,0,0,1,1.45.9c0,.18-.07.37-.11.55l-63.54,14.41a22.84,22.84,0,0,1,0-4.17c1.31-6.53-2.71-10-7.26-13.37a68.39,68.39,0,0,0-23.82-10.9A89.73,89.73,0,0,0,280.08,237a80.84,80.84,0,0,0-25.29,5.55,53.17,53.17,0,0,0-15.35,8.95c-1.28,1.1-2.41,2.39-3.71,3.46-1.73,1.43-2,3.23-1.94,5.33C233.89,262.56,233.8,264.89,233.8,267.66Z" transform="translate(-169.65 -209.31)"/><path d="M208.52,262l-38.87-8.8a19.58,19.58,0,0,1,2.37-1.43q15.42-5.81,30.86-11.56c1.78-.66,3.59-1.22,5.65-1.91C208.52,246.25,208.52,254,208.52,262Z" transform="translate(-169.65 -209.31)"/><path d="M219.13,462h-7a7.65,7.65,0,0,1-.13-.89c0-8.39,0-16.78,0-25.33h7.07V446h10.6V435.72h7v26.16h-7c0-2.89-.11-5.85,0-8.8.09-1.91-.42-2.7-2.46-2.51a41.13,41.13,0,0,1-6.18,0c-1.66-.11-2.06.55-2,2.09C219.21,455.7,219.13,458.75,219.13,462Z" transform="translate(-169.65 -209.31)"/><path d="M370.61,442.35v-8.43a25.49,25.49,0,0,0,4.57.63c2.42-.1,2.72,1.11,2.66,3.13-.13,4.34-.06,8.68,0,13,0,3.5-.45,7.1,2.18,10.05-5,1.95-5,1.95-7.61-1.81-1.7,3.19-4.42,3.86-7.71,3.39-6.1-.87-7.65-9.42-5.95-13.22C361.07,443.84,365,442.19,370.61,442.35Zm.2,5c-2.66-.7-4-.46-4.26,1.16a39,39,0,0,0-.19,8.16c.09,1.39,1.35,1.6,2.39.76a3.6,3.6,0,0,0,1.34-2C370.45,452.74,370.59,450.06,370.81,447.31Z" transform="translate(-169.65 -209.31)"/><path d="M292,459.73c.87-1.42,1.66-2.69,2.51-4.06a33.19,33.19,0,0,0,4.18,1.61,9.71,9.71,0,0,0,4.16.35,3.14,3.14,0,0,0,2.09-2.13,4.09,4.09,0,0,0-1.45-3.11,39,39,0,0,0-5.92-2.87,7.12,7.12,0,0,1-4.54-7,7.45,7.45,0,0,1,5.71-6.67c4.76-1.42,9.22-.47,13.79,1.68-.41.88-.78,1.55-1.05,2.25-.61,1.56-1.4,2-3.08,1.13a9.43,9.43,0,0,0-4.27-1.06c-.92,0-2.62.89-2.61,1.34a4.83,4.83,0,0,0,1.42,3.22c1,.9,2.51,1.26,3.81,1.85l2.14.94c3.33,1.51,4.4,4.23,4,7.67-.38,3.61-2.58,5.76-5.85,6.85C301.82,463.44,297,462,292,459.73Z" transform="translate(-169.65 -209.31)"/><path d="M345.72,442.42h6.81c1,6.05-1.2,12.45,2.1,18.18-3.21,2.29-4.79,2-7.38-1.21-1.88,2.24-4.44,2.94-7.2,3.06-3.35.15-6.54-1.92-6.58-5.93-.05-4.61,0-9.23,0-14h7.13v7.33c0,2-.07,4,.07,6,0,.65.6,1.75,1,1.79a2.84,2.84,0,0,0,2.33-.79,10.72,10.72,0,0,0,1.66-4.38C345.89,449.19,345.72,445.92,345.72,442.42Z" transform="translate(-169.65 -209.31)"/><path d="M278.34,455.45c.81,2.42,2.67,2.54,4.53,2.37s3.46-.57,5.35-.89c.34,1.23.65,2.38,1,3.76-4.74,1.82-9.47,2.77-14.2.43a8.26,8.26,0,0,1-3.33-3.42c-2-3.81-.81-9.77,2.36-13,2.72-2.77,8.84-3.67,12.61-1.81,2,1,2.58,2.84,2.6,4.81a5.28,5.28,0,0,1-2.88,5.1,27.68,27.68,0,0,1-3.89,1.65C281.25,454.88,279.91,455.09,278.34,455.45Zm-.6-4.15c2.32.38,3.72-.39,4.25-2.23.2-.7-.37-1.62-.59-2.44-.9.33-2.18.42-2.62,1.06C278.13,448.64,278.08,450,277.74,451.3Z" transform="translate(-169.65 -209.31)"/><path d="M324.39,437.73v4.88l5,.23c-.23,1.48-.45,2.84-.68,4.28l-4.23.2c0,3-.07,5.95.08,8.89,0,.43,1,1,1.67,1.16a16.22,16.22,0,0,0,3.15.05c.28,1.14.57,2.35.88,3.62a16.39,16.39,0,0,1-9.95.44c-2.06-.57-3.42-2.92-3.46-5.8,0-2.69,0-5.39,0-8.17a5,5,0,0,0-1.31-.27c-1.89.24-2.21-.72-2.2-2.38s.36-2.35,2-2.12c1.82.25,2.72-.34,2.86-2.34.05-.67,1-1.57,1.8-1.84A26,26,0,0,1,324.39,437.73Z" transform="translate(-169.65 -209.31)"/><path d="M253.75,444c5.16-2.22,5.49-2.16,7.41,1.47,2.42-2.65,5.26-4,9.1-2.58-.61,1.79-1.19,3.49-1.72,5.06-4.81.39-5.42,1-5.43,5.64,0,2.69,0,5.39,0,8.26h-6.9C255.28,455.93,257.66,449.54,253.75,444Z" transform="translate(-169.65 -209.31)"/><path d="M242.44,442.81h7.18v8.27c0,1.21.09,2.43,0,3.62-.17,1.8.1,3.15,2.42,3,.16,1.14.3,2.18.45,3.3a10,10,0,0,1-6.81.7c-2-.55-3.14-1.78-3.18-3.74C242.37,453,242.44,448,242.44,442.81Z" transform="translate(-169.65 -209.31)"/><path d="M249.58,436.48a3.81,3.81,0,0,1-3.93,3.62,3.54,3.54,0,1,1,.13-7.07A3.57,3.57,0,0,1,249.58,436.48Z" transform="translate(-169.65 -209.31)"/></svg>